PathFileType	4	(X/Y/Z)	C:/Users/opensim2020/Desktop/walking_exp_matlab/subject01_walking06_straight_04.trc																																																																																																																															
DataRate	CameraRate	NumFrames	NumMarkers	Units	OrigDataRate	OrigDataStartFrame	OrigNumFrames																																																																																																																											
100	100	4	43	mm	100	2896	212																																																																																																																											
Frame#	Time	LFHD			RFHD			LBHD			RBHD			C7			T10			CLAV			STRN			RBAK			LSHO			LUPA			LELB			LFRM			LWRA			LWRB			LFIN			RSHO			RUPA			RELB			RFRM			RWRA			RWRB			RFIN			LASI			RASI			LPSI			RPSI			LTHI			LKNE			LTIB			LANK			LHEE			LTOE			RTHI			RKNE			RTIB			RANK			RHEE			RTOE			*39			*40			*41			*42		
		X1	Y1	Z1	X2	Y2	Z2	X3	Y3	Z3	X4	Y4	Z4	X5	Y5	Z5	X6	Y6	Z6	X7	Y7	Z7	X8	Y8	Z8	X9	Y9	Z9	X10	Y10	Z10	X11	Y11	Z11	X12	Y12	Z12	X13	Y13	Z13	X14	Y14	Z14	X15	Y15	Z15	X16	Y16	Z16	X17	Y17	Z17	X18	Y18	Z18	X19	Y19	Z19	X20	Y20	Z20	X21	Y21	Z21	X22	Y22	Z22	X23	Y23	Z23	X24	Y24	Z24	X25	Y25	Z25	X26	Y26	Z26	X27	Y27	Z27	X28	Y28	Z28	X29	Y29	Z29	X30	Y30	Z30	X31	Y31	Z31	X32	Y32	Z32	X33	Y33	Z33	X34	Y34	Z34	X35	Y35	Z35	X36	Y36	Z36	X37	Y37	Z37	X38	Y38	Z38	X39	Y39	Z39	X40	Y40	Z40	X41	Y41	Z41	X42	Y42	Z42	X43	Y43	Z43
																																																																																																																																		
107	1.06	-153.16408	1674.13184	1097.5636	-117.44977	1672.31555	1207.24377	-268.37247	1635.12195	1128.10364	-234.47874	1632.96582	1243.56934	-310.24884	1437.40405	1152.61523	-343.56613	1142.8573	1145.21191	-167.54021	1368.5	1140.13782	-124.42957	1216.08643	1124.41003	-360.27551	1239.53503	1222.5614	-236.75594	1409.02307	984.30487	-278.01141	1229.28748	893.9989	-299.06824	1078.74097	892.65491	-265.31021	969.88452	864.95398	-189.92049	851.71332	881.86646	-244.50841	849.17261	856.33685	-199.08652	776.9317	849.32007	-221.17905	1388.64844	1296.2041	-263.30408	1182.7207	1392.82654	-252.95575	1057.27075	1392.32483	-203.701	945.90332	1420.40833	-98.8976	851.23956	1403.99121	-144.26347	840.04144	1438.01428	-89.43903	775.86658	1440.91309	-169.51558	944.26324	1024.42627	-163.58382	938.01825	1242.39856	-353.64548	949.14612	1079.06799	-349.67267	952.52472	1223.85791	-113.59989	629.8811	949.30353	-92.18055	497.07083	959.26538	-205.12985	347.95963	961.9632	-316.40695	163.01236	1020.59967	-356.46561	150.32146	1084.20947	-210.89072	64.14342	990.67603	-238.63683	605.3559	1290.24121	-245.07945	446.47479	1262.59229	-314.77036	284.13657	1269.55896	-361.39508	83.02893	1216.88855	-413.94989	50.09074	1168.07715	-223.74319	36.34853	1213.6499	-131.48755	1708.04614	1189.21741	-1973.14282	1023.31506	3101.93115	-2012.50134	1022.06506	3140.66748	NaN	NaN	NaN
108	1.07	-143.38449	1673.62854	1096.64343	-107.46378	1672.01318	1206.198	-258.53604	1634.78674	1127.47522	-224.47591	1632.86084	1242.85742	-300.42532	1437.19421	1152.53687	-334.09894	1142.60938	1145.61475	-157.84557	1368.15662	1139.96875	-114.93121	1215.63843	1124.40686	-350.60861	1239.43347	1223.03589	-227.23093	1408.35193	984.04034	-269.39539	1228.50293	894.30597	-291.43988	1078.4209	893.51013	-260.16992	969.07373	865.59204	-187.59639	849.06885	882.13348	-242.25885	847.88605	856.80762	-198.83275	774.2832	849.84833	-211.19754	1388.98755	1296.71265	-252.66254	1182.69653	1392.98865	-240.78235	1057.43274	1393.49377	-189.35181	946.90643	1421.34534	-82.49912	854.69385	1405.08911	-127.60013	842.20557	1438.83923	-71.34345	779.53546	1442.06287	-160.19124	943.94073	1024.68091	-154.74284	937.2677	1242.75586	-344.49097	948.87561	1079.02295	-340.8114	952.25916	1223.76794	-101.63348	630.80927	949.75653	-79.01616	497.98056	960.46857	-186.59773	344.33804	963.06421	-287.95541	153.15907	1020.62091	-327.04147	137.38184	1084.23291	-177.45726	61.42085	988.15063	-233.0744	605.22455	1290.27344	-241.7122	446.64514	1262.91943	-312.90015	284.82693	1269.48108	-360.94952	83.9761	1216.97205	-413.62781	51.32139	1167.90332	-223.51582	36.35482	1213.76038	-121.54029	1707.76343	1188.10864	-1973.16943	1023.37268	3101.98633	-2012.52148	1022.11285	3140.71826	NaN	NaN	NaN
109	1.08	-133.52756	1673.09082	1095.59668	-97.46837	1671.74951	1205.198	-248.70186	1634.37671	1126.66589	-214.43512	1632.69482	1242.03687	-290.72687	1436.83813	1152.21094	-324.59912	1142.30774	1145.93494	-148.09608	1367.70117	1139.68506	-105.3406	1215.11157	1124.25024	-340.86658	1239.27209	1223.32471	-217.70306	1407.63049	983.70593	-260.71301	1227.5957	894.57343	-284.20126	1078.19775	893.98572	-254.84514	968.26642	866.15387	-184.86418	846.51569	882.43347	-239.62474	846.65698	857.24213	-198.18005	771.95996	850.24023	-201.39474	1388.73376	1296.15906	-242.02837	1182.75183	1393.37708	-228.66393	1057.49951	1394.53259	-175.05132	947.9516	1422.44019	-66.36251	858.01422	1406.03589	-111.09921	844.66119	1439.84155	-53.47622	783.20258	1443.21851	-150.79463	943.44818	1024.93396	-145.74091	936.62634	1243.03015	-335.24435	948.51837	1078.87012	-331.9101	952.02448	1223.59766	-89.79998	631.46069	950.05933	-66.47345	498.68542	961.79004	-168.20435	340.54898	963.73315	-258.74457	143.10097	1020.05542	-296.79355	124.31315	1083.59937	-143.40041	58.78088	985.9267	-227.62155	605.07684	1290.70227	-238.01483	446.24258	1263.21826	-310.96686	285.52338	1269.34802	-360.54395	84.96077	1216.84619	-413.40735	52.79702	1167.83618	-223.5023	36.22425	1213.84155	-111.57868	1707.38269	1187.03125	-1973.10327	1023.33795	3101.86011	-2012.54797	1022.05951	3140.53149	NaN	NaN	NaN
110	1.09	-123.47298	1672.54834	1094.6438	-87.52481	1671.36157	1203.99512	-238.54372	1633.72461	1126.01379	-204.46085	1632.46765	1241.12476	-280.89908	1436.44348	1151.87463	-315.04733	1141.93494	1146.12659	-138.27782	1367.19019	1139.22705	-95.6706	1214.41406	1124.05884	-331.1214	1239.06982	1223.55664	-207.97873	1406.82373	983.31512	-251.97714	1226.72546	894.71948	-276.45758	1077.72827	894.57825	-249.32396	967.47998	866.53131	-182.01974	844.08209	882.70001	-236.77054	845.55829	857.44861	-197.08868	769.68011	850.67603	-191.41573	1388.63733	1295.66138	-231.39987	1182.56531	1393.32971	-216.61223	1057.50073	1395.4458	-160.82034	948.96844	1423.37256	-50.42944	861.34454	1406.90088	-94.85147	846.85095	1440.62122	-35.99168	786.6554	1443.87036	-141.40187	942.80176	1025.13306	-136.06325	936.10101	1243.13391	-325.91846	948.11865	1078.61304	-323.00165	951.90302	1223.30884	-78.60673	631.68683	950.7193	-54.60289	499.06082	963.05402	-149.92769	336.31525	964.45026	-228.90085	133.11154	1018.88141	-265.40536	111.44149	1082.58997	-108.21131	56.80961	984.07068	-222.31252	605.24908	1290.91125	-234.41061	446.21939	1263.56018	-308.88528	286.26425	1269.20972	-359.95502	85.95439	1216.8634	-413.16919	54.44556	1167.76416	-223.37202	36.17532	1213.88989	-101.64932	1706.98303	1185.69873	-1973.03784	1023.50317	3101.91479	-2012.49622	1021.98035	3140.68726	NaN	NaN	NaN
